<?xml version="1.0" standalone="no"?>
<!DOCTYPE svg PUBLIC "-//W3C//DTD SVG 20010904//EN"
 "http://www.w3.org/TR/2001/REC-SVG-20010904/DTD/svg10.dtd">
<svg version="1.0" xmlns="http://www.w3.org/2000/svg"
 width="700.000000pt" height="700.000000pt" viewBox="0 0 700.000000 700.000000"
 preserveAspectRatio="xMidYMid meet">
<metadata>
Created by potrace 1.14, written by Peter Selinger 2001-2017
</metadata>
<g transform="translate(0.000000,700.000000) scale(0.100000,-0.100000)"
fill="#000000" stroke="none">
<path d="M4718 6115 c-20 -7 -43 -18 -51 -26 -21 -21 -2194 -2179 -2559 -2542
-272 -271 -318 -321 -324 -352 -14 -77 34 -156 105 -174 20 -5 224 -8 454 -7
229 0 417 -3 417 -7 0 -8 -197 -535 -230 -617 -10 -25 -48 -124 -84 -220 -98
-263 -225 -602 -236 -625 -4 -11 -48 -123 -95 -250 -97 -256 -105 -299 -65
-355 28 -40 92 -70 134 -63 63 10 25 -23 556 493 146 142 303 295 350 340 47
46 204 198 349 339 145 141 298 290 341 331 43 41 193 188 334 325 142 138
301 292 354 344 495 478 712 692 729 717 31 48 25 126 -15 171 -43 50 -48 50
-511 52 -239 0 -435 2 -437 4 -3 3 26 90 216 637 43 124 88 254 100 290 12 36
25 74 30 85 5 11 20 54 33 95 14 41 60 174 102 295 123 352 176 508 187 544
26 90 -30 166 -138 187 -6 1 -27 -4 -46 -11z m-378 -810 l29 -15 -50 -143
c-28 -78 -61 -173 -74 -212 -13 -38 -58 -169 -100 -290 -42 -121 -98 -283
-125 -360 -26 -77 -69 -200 -95 -274 -26 -74 -48 -148 -49 -165 -5 -51 36
-119 84 -139 16 -7 157 -11 380 -13 400 -2 379 -2 363 -12 -7 -4 -125 -118
-264 -252 -138 -135 -286 -279 -329 -320 -43 -41 -194 -188 -336 -326 -143
-139 -299 -291 -349 -339 -252 -244 -598 -581 -682 -663 -94 -91 -96 -93 -117
-75 -11 10 -22 19 -24 19 -5 3 12 58 41 134 14 36 77 205 141 375 65 171 121
319 126 330 28 61 210 557 213 581 8 57 -30 124 -83 147 -16 7 -148 11 -383
12 -196 1 -359 4 -362 7 -3 2 336 342 753 756 416 413 870 864 1007 1001 138
138 251 250 253 251 2 0 16 -7 32 -15z"/>
</g>
</svg>
